<svg width="32" height="32" viewBox="0 0 32 32" fill="none" xmlns="http://www.w3.org/2000/svg">
<path d="M17.3201 12.81C17.9065 12.4786 18.442 12.0643 18.9101 11.58C19.3957 11.1168 19.8102 10.5844 20.1401 9.99999C20.5581 9.26509 21.0764 8.59196 21.6801 7.99999C22.2723 7.39947 22.9455 6.88451 23.6801 6.46999C24.1686 6.19206 24.6218 5.85631 25.0301 5.46999C24.4288 5.16825 23.774 4.9882 23.103 4.94015C22.432 4.8921 21.7581 4.977 21.1201 5.18999C19.6278 5.55503 18.2519 6.29113 17.1201 7.32999C16.1452 8.35995 15.5129 9.66638 15.3101 11.07C15.133 12.0845 15.2618 13.1288 15.6801 14.07C16.1751 13.5868 16.7256 13.1638 17.3201 12.81Z" fill="#86341F"/>
<path d="M24.6801 8.18998C24.0911 8.51743 23.555 8.93212 23.0901 9.41998C22.603 9.88186 22.1884 10.4145 21.8601 11C21.45 11.7375 20.9346 12.4112 20.3301 13C19.7381 13.6036 19.065 14.1219 18.3301 14.54C17.828 14.811 17.364 15.1473 16.9501 15.54C17.7055 16.0291 18.5904 16.2799 19.4901 16.26C19.8012 16.2558 20.1118 16.2324 20.4201 16.19C21.8237 15.9871 23.1301 15.3549 24.1601 14.38C25.1989 13.2482 25.935 11.8723 26.3001 10.38C26.6498 9.27363 26.6498 8.08633 26.3001 6.97998C25.8077 7.44341 25.2642 7.84935 24.6801 8.18998Z" fill="#86341F"/>
<path d="M7.32005 23.81C7.90906 23.4826 8.44513 23.0679 8.91005 22.58C9.3971 22.1181 9.81176 21.5855 10.14 21C10.5501 20.2625 11.0655 19.5888 11.67 19C12.262 18.3963 12.9352 17.878 13.67 17.46C14.1721 17.189 14.6362 16.8527 15.05 16.46C14.0109 15.8286 12.7773 15.5975 11.58 15.81C10.1764 16.0128 8.87001 16.6451 7.84005 17.62C6.8012 18.7518 6.06509 20.1277 5.70005 21.62C5.35031 22.7264 5.35031 23.9136 5.70005 25.02C6.19244 24.5566 6.73593 24.1506 7.32005 23.81Z" fill="#86341F"/>
<path d="M14.6801 19.19C14.0937 19.5214 13.5581 19.9356 13.0901 20.42C12.6045 20.8832 12.19 21.4156 11.8601 22C11.442 22.7349 10.9237 23.408 10.3201 24C9.73058 24.6036 9.05695 25.119 8.32008 25.53C7.82807 25.8072 7.37142 26.143 6.96008 26.53C7.60094 26.8982 8.33129 27.0817 9.07008 27.06C9.68163 27.0545 10.2899 26.9705 10.8801 26.81C12.3724 26.445 13.7483 25.7088 14.8801 24.67C15.855 23.64 16.4872 22.3336 16.6901 20.93C16.8671 19.9154 16.7383 18.8711 16.3201 17.93C15.825 18.4132 15.2745 18.8361 14.6801 19.19Z" fill="#86341F"/>
</svg>
