<svg width="32" height="32" viewBox="0 0 32 32" fill="none" xmlns="http://www.w3.org/2000/svg">
<path d="M18.71 6.29C18.617 6.19627 18.5064 6.12188 18.3846 6.07111C18.2627 6.02034 18.132 5.9942 18 5.9942C17.868 5.9942 17.7373 6.02034 17.6154 6.07111C17.4936 6.12188 17.383 6.19627 17.29 6.29L17 6.59V5C17 4.73478 16.8946 4.48043 16.7071 4.29289C16.5196 4.10536 16.2652 4 16 4C15.7348 4 15.4804 4.10536 15.2929 4.29289C15.1054 4.48043 15 4.73478 15 5V6.59L14.71 6.29C14.5217 6.1017 14.2663 5.99591 14 5.99591C13.7337 5.99591 13.4783 6.1017 13.29 6.29C13.1017 6.4783 12.9959 6.7337 12.9959 7C12.9959 7.2663 13.1017 7.5217 13.29 7.71L15.29 9.71C15.3755 9.79375 15.4777 9.85849 15.59 9.9C15.7159 9.96768 15.8571 10.0021 16 10C16.1296 9.997 16.2579 9.97337 16.38 9.93C16.5015 9.87564 16.6131 9.80128 16.71 9.71L18.71 7.71C18.8037 7.61704 18.8781 7.50644 18.9289 7.38458C18.9797 7.26272 19.0058 7.13201 19.0058 7C19.0058 6.86799 18.9797 6.73728 18.9289 6.61542C18.8781 6.49356 18.8037 6.38296 18.71 6.29Z" fill="#8EC63F"/>
<path d="M21.15 20C21.23 19.66 21.31 19.33 21.38 19H17C13.8831 19 20.1455 19 21.38 19L21.76 17C21.76 16.64 21.86 16.31 21.9 16C22 14 21.8941 16.0432 22 14C21.9337 12.43 21.2803 10.942 20.1691 9.83086C19.058 8.71969 17.57 8.06627 16 8C12.69 8 10 11 10 14.63C10 17.18 12 28 16 28C18.06 28 19.59 25.13 20.59 22C21.15 20 20.59 21.9786 21.15 20Z" fill="#FC751B"/>
</svg>
