<svg width="32" height="32" viewBox="0 0 32 32" fill="none" xmlns="http://www.w3.org/2000/svg">
<path d="M21 15C20.7348 15 20.4804 14.8946 20.2929 14.7071C20.1053 14.5196 20 14.2652 20 14V9.54C20.0416 8.91549 19.8365 8.2996 19.4289 7.82465C19.0212 7.3497 18.4436 7.05361 17.82 7H12.18C11.5564 7.05361 10.9787 7.3497 10.5711 7.82465C10.1635 8.2996 9.9584 8.91549 9.99998 9.54V14C9.99998 14.2652 9.89462 14.5196 9.70708 14.7071C9.51955 14.8946 9.26519 15 8.99998 15C8.73476 15 8.48041 14.8946 8.29287 14.7071C8.10533 14.5196 7.99998 14.2652 7.99998 14V9.54C7.95658 8.3848 8.37163 7.25928 9.15464 6.40883C9.93766 5.55838 11.0251 5.05197 12.18 5H17.82C18.9748 5.05197 20.0623 5.55838 20.8453 6.40883C21.6283 7.25928 22.0434 8.3848 22 9.54V14C22 14.2652 21.8946 14.5196 21.7071 14.7071C21.5195 14.8946 21.2652 15 21 15Z" fill="#DFE0DE"/>
<path d="M25.71 17.29L21.71 13.29C21.6171 13.1963 21.5065 13.1219 21.3846 13.0711C21.2627 13.0203 21.132 12.9942 21 12.9942C20.868 12.9942 20.7373 13.0203 20.6154 13.0711C20.4936 13.1219 20.383 13.1963 20.29 13.29L16.29 17.29C16.1973 17.3834 16.124 17.4943 16.0742 17.6161C16.0245 17.7379 15.9993 17.8684 16 18V26C16 26.2652 16.1054 26.5196 16.2929 26.7071C16.4804 26.8946 16.7348 27 17 27H25C25.2652 27 25.5196 26.8946 25.7071 26.7071C25.8947 26.5196 26 26.2652 26 26V18C26.0008 17.8684 25.9756 17.7379 25.9258 17.6161C25.876 17.4943 25.8027 17.3834 25.71 17.29Z" fill="#64C22E"/>
<path d="M11.45 14.11L9.45 13.11C9.31042 13.0397 9.1563 13.003 9 13.003C8.8437 13.003 8.68958 13.0397 8.55 13.11L6.55 14.11C6.38509 14.1931 6.2464 14.3202 6.14932 14.4773C6.05224 14.6344 6.00056 14.8153 6 15V19C6 19.2652 6.10536 19.5196 6.29289 19.7071C6.48043 19.8946 6.73478 20 7 20H11C11.2652 20 11.5196 19.8946 11.7071 19.7071C11.8946 19.5196 12 19.2652 12 19V15C11.9994 14.8153 11.9478 14.6344 11.8507 14.4773C11.7536 14.3202 11.6149 14.1931 11.45 14.11Z" fill="#84F43B"/>
<path d="M22 21H20C19.7348 21 19.4804 20.8946 19.2929 20.7071C19.1054 20.5196 19 20.2652 19 20C19 19.7348 19.1054 19.4804 19.2929 19.2929C19.4804 19.1054 19.7348 19 20 19H22C22.2652 19 22.5196 19.1054 22.7071 19.2929C22.8946 19.4804 23 19.7348 23 20C23 20.2652 22.8946 20.5196 22.7071 20.7071C22.5196 20.8946 22.2652 21 22 21Z" fill="#84F43B"/>
<path d="M22 24H20C19.7348 24 19.4804 23.8946 19.2929 23.7071C19.1054 23.5196 19 23.2652 19 23C19 22.7348 19.1054 22.4804 19.2929 22.2929C19.4804 22.1054 19.7348 22 20 22H22C22.2652 22 22.5196 22.1054 22.7071 22.2929C22.8946 22.4804 23 22.7348 23 23C23 23.2652 22.8946 23.5196 22.7071 23.7071C22.5196 23.8946 22.2652 24 22 24Z" fill="#84F43B"/>
</svg>
