<svg width="32" height="32" viewBox="0 0 32 32" fill="none" xmlns="http://www.w3.org/2000/svg">
<path d="M24.2999 11.77C24.6101 11.2012 24.7277 10.5473 24.6353 9.90607C24.5429 9.26484 24.2454 8.67076 23.7873 8.21267C23.3292 7.75457 22.7351 7.45707 22.0939 7.36466C21.4527 7.27225 20.7988 7.3899 20.2299 7.70001C19.0157 6.87977 17.5546 6.50617 16.0957 6.64294C14.6368 6.77971 13.2705 7.41838 12.2299 8.45001L8.44995 12.23C7.41832 13.2706 6.77965 14.6369 6.64288 16.0958C6.50611 17.5546 6.8797 19.0158 7.69995 20.23C7.38984 20.7988 7.27219 21.4527 7.3646 22.0939C7.45701 22.7352 7.75451 23.3293 8.2126 23.7873C8.6707 24.2454 9.26478 24.5429 9.90601 24.6354C10.5472 24.7278 11.2011 24.6101 11.7699 24.3C12.9828 25.124 14.4448 25.4998 15.9048 25.363C17.3647 25.2261 18.7313 24.5851 19.7699 23.55L23.5499 19.77C24.5816 18.7294 25.2202 17.3632 25.357 15.9043C25.4938 14.4454 25.1202 12.9842 24.2999 11.77Z" fill="#F2D422"/>
<path d="M16.7099 22C16.5783 22.0008 16.4478 21.9755 16.326 21.9258C16.2042 21.876 16.0933 21.8027 15.9999 21.71C15.9062 21.617 15.8318 21.5064 15.781 21.3846C15.7302 21.2627 15.7041 21.132 15.7041 21C15.7041 20.868 15.7302 20.7373 15.781 20.6154C15.8318 20.4936 15.9062 20.383 15.9999 20.29L16.7099 19.59C16.8973 19.4038 17.1507 19.2992 17.4149 19.2992C17.6791 19.2992 17.9325 19.4038 18.1199 19.59C18.2136 19.683 18.288 19.7936 18.3388 19.9154C18.3896 20.0373 18.4157 20.168 18.4157 20.3C18.4157 20.432 18.3896 20.5627 18.3388 20.6846C18.288 20.8064 18.2136 20.917 18.1199 21.01L17.4199 21.72C17.2296 21.9035 16.9743 22.0042 16.7099 22Z" fill="#D6B013"/>
<path d="M15.9999 18.41C15.8683 18.4108 15.7379 18.3855 15.616 18.3358C15.4942 18.286 15.3834 18.2127 15.2899 18.12C15.1037 17.9326 14.9991 17.6792 14.9991 17.415C14.9991 17.1508 15.1037 16.8974 15.2899 16.71L15.9999 16C16.1912 15.8362 16.4373 15.7506 16.689 15.7603C16.9407 15.77 17.1794 15.8744 17.3575 16.0524C17.5356 16.2305 17.6399 16.4693 17.6496 16.721C17.6594 16.9726 17.5738 17.2187 17.4099 17.41L16.7099 18.12C16.6165 18.2127 16.5057 18.286 16.3838 18.3358C16.262 18.3855 16.1315 18.4108 15.9999 18.41Z" fill="#D6B013"/>
<path d="M13.17 21.24C13.0384 21.2408 12.9079 21.2155 12.7861 21.1658C12.6642 21.116 12.5534 21.0427 12.46 20.95C12.2737 20.7626 12.1692 20.5092 12.1692 20.245C12.1692 19.9808 12.2737 19.7274 12.46 19.54L13.17 18.83C13.2629 18.7363 13.3735 18.6619 13.4954 18.6111C13.6173 18.5603 13.748 18.5342 13.88 18.5342C14.012 18.5342 14.1427 18.5603 14.2646 18.6111C14.3864 18.6619 14.497 18.7363 14.59 18.83C14.7762 19.0174 14.8808 19.2708 14.8808 19.535C14.8808 19.7992 14.7762 20.0526 14.59 20.24L13.88 20.95C13.7865 21.0427 13.6757 21.116 13.5539 21.1658C13.4321 21.2155 13.3016 21.2408 13.17 21.24Z" fill="#D6B013"/>
</svg>
