<svg width="32" height="32" viewBox="0 0 32 32" fill="none" xmlns="http://www.w3.org/2000/svg">
<path d="M27 12H5C4.73478 12 4.48043 12.1054 4.29289 12.2929C4.10536 12.4804 4 12.7348 4 13C4 16.1826 5.26428 19.2348 7.51472 21.4853C9.76515 23.7357 12.8174 25 16 25C19.1826 25 22.2348 23.7357 24.4853 21.4853C26.7357 19.2348 28 16.1826 28 13C28 12.7348 27.8946 12.4804 27.7071 12.2929C27.5196 12.1054 27.2652 12 27 12Z" fill="#F3ED73"/>
<path d="M20 12H12C11.7348 12 11.4804 12.1054 11.2929 12.2929C11.1054 12.4804 11 12.7348 11 13V14C11 15.3261 11.5268 16.5979 12.4645 17.5355C13.4021 18.4732 14.6739 19 16 19C17.3261 19 18.5979 18.4732 19.5355 17.5355C20.4732 16.5979 21 15.3261 21 14V13C21 12.7348 20.8946 12.4804 20.7071 12.2929C20.5196 12.1054 20.2652 12 20 12Z" fill="#FACD2A"/>
</svg>
